<?xml version="1.0" encoding="UTF-8" standalone="no"?>
<!-- Created with Inkscape (http://www.inkscape.org/) -->

<svg
   width="148mm"
   height="210mm"
   viewBox="0 0 148 210"
   version="1.1"
   id="svg5"
   inkscape:version="1.4.2 (ebf0e940d0, 2025-05-08)"
   sodipodi:docname="copertina-retro.svg"
   xml:space="preserve"
   inkscape:export-filename="copertina.pdf"
   inkscape:export-xdpi="300"
   inkscape:export-ydpi="300"
   xmlns:inkscape="http://www.inkscape.org/namespaces/inkscape"
   xmlns:sodipodi="http://sodipodi.sourceforge.net/DTD/sodipodi-0.dtd"
   xmlns="http://www.w3.org/2000/svg"
   xmlns:svg="http://www.w3.org/2000/svg"><sodipodi:namedview
     id="namedview7"
     pagecolor="#ffffff"
     bordercolor="#666666"
     borderopacity="1.0"
     inkscape:showpageshadow="2"
     inkscape:pageopacity="0.0"
     inkscape:pagecheckerboard="0"
     inkscape:deskcolor="#d1d1d1"
     inkscape:document-units="mm"
     showgrid="false"
     inkscape:zoom="1.0847917"
     inkscape:cx="279.3163"
     inkscape:cy="396.85039"
     inkscape:window-width="1920"
     inkscape:window-height="1064"
     inkscape:window-x="0"
     inkscape:window-y="16"
     inkscape:window-maximized="1"
     inkscape:current-layer="layer1"
     showguides="true"><sodipodi:guide
       position="-54.627839,185"
       orientation="0,1"
       id="guide1529"
       inkscape:locked="false"
       inkscape:label=""
       inkscape:color="rgb(0,134,229)" /><sodipodi:guide
       position="-17.138146,25"
       orientation="0,1"
       id="guide1531"
       inkscape:locked="false"
       inkscape:label=""
       inkscape:color="rgb(0,134,229)" /><sodipodi:guide
       position="25,85.000001"
       orientation="-1,0"
       id="guide1533"
       inkscape:locked="false"
       inkscape:label=""
       inkscape:color="rgb(0,134,229)" /><sodipodi:guide
       position="123.5,234.99312"
       orientation="-1,0"
       id="guide1535"
       inkscape:locked="false"
       inkscape:label=""
       inkscape:color="rgb(0,134,229)" /></sodipodi:namedview><defs
     id="defs2"><rect
       x="41.4097"
       y="349.84057"
       width="235.42465"
       height="100.4327"
       id="rect899" /><rect
       x="141.0146"
       y="371.76575"
       width="25.982913"
       height="56.619516"
       id="rect942" /><clipPath
       clipPathUnits="userSpaceOnUse"
       id="clipPath532"><rect
         style="fill:#000080;stroke-width:0.999998;stroke-opacity:0.99716;paint-order:markers fill stroke;stop-color:#000000"
         id="rect534"
         width="98.411125"
         height="89.352386"
         x="25.088871"
         y="67.683151" /></clipPath></defs><g
     inkscape:label="Layer 1"
     inkscape:groupmode="layer"
     id="layer1"><text
       xml:space="preserve"
       style="font-style:normal;font-variant:normal;font-weight:normal;font-stretch:normal;font-size:3.88056px;font-family:'Century Schoolbook';-inkscape-font-specification:'Century Schoolbook Regular';text-align:center;writing-mode:lr-tb;direction:ltr;text-anchor:middle;fill:#000000;stroke-width:0.264583"
       x="74.089058"
       y="64.834877"
       id="text1"><tspan
         sodipodi:role="line"
         id="tspan1"
         style="font-style:normal;font-variant:normal;font-weight:normal;font-stretch:normal;font-size:3.88056px;font-family:'Century Schoolbook';-inkscape-font-specification:'Century Schoolbook Regular';text-align:center;text-anchor:middle;stroke-width:0.264583"
         x="74.089058"
         y="64.834877">Il centro del mondo è una capanna,</tspan><tspan
         sodipodi:role="line"
         style="font-style:normal;font-variant:normal;font-weight:normal;font-stretch:normal;font-size:3.88056px;font-family:'Century Schoolbook';-inkscape-font-specification:'Century Schoolbook Regular';text-align:center;text-anchor:middle;stroke-width:0.264583"
         x="74.089058"
         y="69.685577"
         id="tspan2">dentro c'è un bimbo cha fa la nanna,</tspan><tspan
         sodipodi:role="line"
         style="font-style:normal;font-variant:normal;font-weight:normal;font-stretch:normal;font-size:3.88056px;font-family:'Century Schoolbook';-inkscape-font-specification:'Century Schoolbook Regular';text-align:center;text-anchor:middle;stroke-width:0.264583"
         x="74.089058"
         y="74.536278"
         id="tspan3">c'è tanta neve, il freddo si taglia,</tspan><tspan
         sodipodi:role="line"
         style="font-style:normal;font-variant:normal;font-weight:normal;font-stretch:normal;font-size:3.88056px;font-family:'Century Schoolbook';-inkscape-font-specification:'Century Schoolbook Regular';text-align:center;text-anchor:middle;stroke-width:0.264583"
         x="74.089058"
         y="79.386978"
         id="tspan4">lui dorme tranquillo sopra la paglia.</tspan><tspan
         sodipodi:role="line"
         style="font-style:normal;font-variant:normal;font-weight:normal;font-stretch:normal;font-size:3.88056px;font-family:'Century Schoolbook';-inkscape-font-specification:'Century Schoolbook Regular';text-align:center;text-anchor:middle;stroke-width:0.264583"
         x="74.089058"
         y="84.237679"
         id="tspan5">La mangiatoia è il suo lettino,</tspan><tspan
         sodipodi:role="line"
         style="font-style:normal;font-variant:normal;font-weight:normal;font-stretch:normal;font-size:3.88056px;font-family:'Century Schoolbook';-inkscape-font-specification:'Century Schoolbook Regular';text-align:center;text-anchor:middle;stroke-width:0.264583"
         x="74.089058"
         y="89.088379"
         id="tspan6">povero bimbo, neanche un cuscino</tspan><tspan
         sodipodi:role="line"
         style="font-style:normal;font-variant:normal;font-weight:normal;font-stretch:normal;font-size:3.88056px;font-family:'Century Schoolbook';-inkscape-font-specification:'Century Schoolbook Regular';text-align:center;text-anchor:middle;stroke-width:0.264583"
         x="74.089058"
         y="93.939079"
         id="tspan7">né una coperta, è tutto gelato,</tspan><tspan
         sodipodi:role="line"
         style="font-style:normal;font-variant:normal;font-weight:normal;font-stretch:normal;font-size:3.88056px;font-family:'Century Schoolbook';-inkscape-font-specification:'Century Schoolbook Regular';text-align:center;text-anchor:middle;stroke-width:0.264583"
         x="74.089058"
         y="98.78978"
         id="tspan8">lo scalda il bue con il suo fiato.</tspan><tspan
         sodipodi:role="line"
         style="font-style:normal;font-variant:normal;font-weight:normal;font-stretch:normal;font-size:3.88056px;font-family:'Century Schoolbook';-inkscape-font-specification:'Century Schoolbook Regular';text-align:center;text-anchor:middle;stroke-width:0.264583"
         x="74.089058"
         y="103.64047"
         id="tspan9">I genitori guardan con amore</tspan><tspan
         sodipodi:role="line"
         style="font-style:normal;font-variant:normal;font-weight:normal;font-stretch:normal;font-size:3.88056px;font-family:'Century Schoolbook';-inkscape-font-specification:'Century Schoolbook Regular';text-align:center;text-anchor:middle;stroke-width:0.264583"
         x="74.089058"
         y="108.49117"
         id="tspan10">il loro figlio, dono del Signore.</tspan><tspan
         sodipodi:role="line"
         style="font-style:normal;font-variant:normal;font-weight:normal;font-stretch:normal;font-size:3.88056px;font-family:'Century Schoolbook';-inkscape-font-specification:'Century Schoolbook Regular';text-align:center;text-anchor:middle;stroke-width:0.264583"
         x="74.089058"
         y="113.34187"
         id="tspan11">Accorron pastori e tanta altra gente,</tspan><tspan
         sodipodi:role="line"
         style="font-style:normal;font-variant:normal;font-weight:normal;font-stretch:normal;font-size:3.88056px;font-family:'Century Schoolbook';-inkscape-font-specification:'Century Schoolbook Regular';text-align:center;text-anchor:middle;stroke-width:0.264583"
         x="74.089058"
         y="118.19257"
         id="tspan12">perfino i Re Magi dal lontano Oriente,</tspan><tspan
         sodipodi:role="line"
         style="font-style:normal;font-variant:normal;font-weight:normal;font-stretch:normal;font-size:3.88056px;font-family:'Century Schoolbook';-inkscape-font-specification:'Century Schoolbook Regular';text-align:center;text-anchor:middle;stroke-width:0.264583"
         x="74.089058"
         y="123.04327"
         id="tspan13">arriva pure qualche angioletto</tspan><tspan
         sodipodi:role="line"
         style="font-style:normal;font-variant:normal;font-weight:normal;font-stretch:normal;font-size:3.88056px;font-family:'Century Schoolbook';-inkscape-font-specification:'Century Schoolbook Regular';text-align:center;text-anchor:middle;stroke-width:0.264583"
         x="74.089058"
         y="127.89397"
         id="tspan14">che intona un canto là sopra il tetto.</tspan><tspan
         sodipodi:role="line"
         style="font-style:normal;font-variant:normal;font-weight:normal;font-stretch:normal;font-size:3.88056px;font-family:'Century Schoolbook';-inkscape-font-specification:'Century Schoolbook Regular';text-align:center;text-anchor:middle;stroke-width:0.264583"
         x="74.089058"
         y="132.74467"
         id="tspan15">Adoran tutti questo bambino</tspan><tspan
         sodipodi:role="line"
         style="font-style:normal;font-variant:normal;font-weight:normal;font-stretch:normal;font-size:3.88056px;font-family:'Century Schoolbook';-inkscape-font-specification:'Century Schoolbook Regular';text-align:center;text-anchor:middle;stroke-width:0.264583"
         x="74.089058"
         y="137.59538"
         id="tspan16">che già risplende, astro divino.</tspan><tspan
         sodipodi:role="line"
         style="font-style:normal;font-variant:normal;font-weight:normal;font-stretch:normal;font-size:3.88056px;font-family:'Century Schoolbook';-inkscape-font-specification:'Century Schoolbook Regular';text-align:center;text-anchor:middle;stroke-width:0.264583"
         x="74.089058"
         y="142.44608"
         id="tspan17">Risplende perché ha luce nel cuore,</tspan><tspan
         sodipodi:role="line"
         style="font-style:normal;font-variant:normal;font-weight:normal;font-stretch:normal;font-size:3.88056px;font-family:'Century Schoolbook';-inkscape-font-specification:'Century Schoolbook Regular';text-align:center;text-anchor:middle;stroke-width:0.264583"
         x="74.089058"
         y="147.29677"
         id="tspan18">è venuto per darci lezioni d'amore.</tspan></text><text
       xml:space="preserve"
       style="font-style:normal;font-variant:normal;font-weight:normal;font-stretch:normal;font-size:7.76111px;font-family:'Century Schoolbook';-inkscape-font-specification:'Century Schoolbook';text-align:center;writing-mode:lr-tb;direction:ltr;text-anchor:middle;fill:#000000;stroke-width:0.264583"
       x="74.011368"
       y="55.347454"
       id="text19"><tspan
         sodipodi:role="line"
         id="tspan19"
         style="font-style:normal;font-variant:normal;font-weight:normal;font-stretch:normal;font-size:7.76111px;font-family:'Century Schoolbook';-inkscape-font-specification:'Century Schoolbook';stroke-width:0.264583"
         x="74.011368"
         y="55.347454">La magia del presepe</tspan></text><text
       xml:space="preserve"
       style="font-style:normal;font-variant:normal;font-weight:normal;font-stretch:normal;font-size:2.82222px;font-family:'Century Schoolbook';-inkscape-font-specification:'Century Schoolbook Regular';text-align:center;writing-mode:lr-tb;direction:ltr;text-anchor:middle;fill:#000000;stroke-width:0.264583"
       x="74"
       y="154.09805"
       id="text20"><tspan
         sodipodi:role="line"
         id="tspan20"
         style="font-size:2.82222px;stroke-width:0.264583"
         x="74"
         y="154.09805">(di Monica Sorti)</tspan></text><path
       style="fill:#000000;stroke-width:0.264583"
       d="M 25.111891,25.111891 H 123.15512"
       id="path20" /><path
       style="fill:#4d4d4d"
       d="m 74.330904,184.27419 c -1.09816,-0.0849 -2.24668,-0.24378 -2.9051,-0.40181 -0.84142,-0.20195 -2.30949,-0.6228 -2.3589,-0.67621 -0.0559,-0.0604 0.63408,0.0276 1.7851,0.22763 0.89084,0.15484 1.28855,0.19373 1.92278,0.188 l 0.79962,-0.007 -0.53586,-0.0836 c -0.29472,-0.046 -0.95578,-0.13234 -1.46903,-0.19189 -0.51325,-0.0596 -0.9013,-0.12798 -0.86235,-0.15206 0.0389,-0.0241 -0.26453,-0.13124 -0.67439,-0.23814 -0.69512,-0.18131 -1.15941,-0.26292 -2.05335,-0.3609 -0.19937,-0.0219 -0.36249,-0.0605 -0.36249,-0.0859 0,-0.0254 -0.2066,-0.0809 -0.45911,-0.12336 -0.52128,-0.0876 -0.92552,-0.29016 -0.80986,-0.40582 0.0395,-0.0395 0.20587,-0.0872 0.36981,-0.10613 0.29763,-0.0343 0.29883,-0.0354 0.81925,-0.75937 0.81993,-1.14054 1.66662,-2.26951 1.70204,-2.26951 0.0178,0 -0.0134,0.0638 -0.0693,0.14185 -0.0559,0.078 -0.22016,0.34042 -0.36496,0.58313 -0.34377,0.57623 -0.94711,1.48121 -1.29658,1.94481 -0.15288,0.20282 -0.26897,0.37651 -0.25798,0.38597 0.011,0.009 0.6047,0.0372 1.31932,0.0616 l 1.29934,0.0444 0.17563,-0.30423 c 0.51275,-0.88821 2.00012,-2.82686 2.51974,-3.28424 0.15685,-0.13807 0.28519,-0.26437 0.28519,-0.28068 0,-0.0163 -0.39007,-0.0474 -0.86683,-0.069 -0.87727,-0.0398 -1.7238,-0.15646 -2.33835,-0.32215 -0.19214,-0.0518 -0.39277,-0.0701 -0.46717,-0.0426 -0.11307,0.0418 -0.11648,0.0536 -0.0257,0.0884 0.13774,0.0529 0.13234,0.21502 -0.0164,0.49252 -0.15378,0.28693 -1.52749,2.26456 -1.83426,2.64066 -0.12726,0.15602 -0.30945,0.41844 -0.40486,0.58313 -0.17055,0.29439 -0.35062,0.39652 -0.35062,0.19886 0,-0.0553 0.0521,-0.17589 0.11581,-0.26793 0.0637,-0.092 0.33151,-0.60705 0.59514,-1.14448 0.26364,-0.53744 0.70673,-1.31758 0.98465,-1.73366 l 0.50533,-0.7565 -0.29669,-0.0481 c -0.16317,-0.0265 -0.48107,-0.078 -0.70645,-0.11441 -0.38278,-0.0619 -1.90042,-0.622 -2.39559,-0.88409 -0.34051,-0.18024 -0.474,-0.30131 -0.40638,-0.36859 0.0374,-0.0372 0.24672,0.0221 0.55994,0.15836 0.27517,0.11975 0.5163,0.19282 0.53586,0.16239 0.0196,-0.0304 0.2767,0.0366 0.57142,0.14891 0.29472,0.11233 0.60678,0.22076 0.69346,0.24095 l 0.15761,0.0367 0.002,-0.68979 c 0.003,-0.89448 0.12157,-1.06709 0.18593,-0.27111 0.0248,0.30641 0.0639,0.67058 0.087,0.80927 0.0399,0.24011 0.0547,0.25387 0.30881,0.28792 0.1468,0.0197 0.2669,0.0282 0.2669,0.0188 0,-0.009 -0.0437,-0.18143 -0.0971,-0.38249 -0.1003,-0.37755 -0.074,-1.09055 0.0403,-1.09055 0.0313,0 0.0564,0.0496 0.0559,0.11033 -5.1e-4,0.0607 0.0886,0.38509 0.19802,0.72091 l 0.19896,0.6106 0.41664,0.0361 c 0.22915,0.0198 0.58685,0.0647 0.79489,0.0997 0.20804,0.035 0.83255,0.0961 1.38781,0.13575 l 1.00955,0.0721 0.25128,-0.16073 c 0.41129,-0.26308 0.97627,-0.80797 0.97627,-0.94155 0,-0.0727 0.0281,-0.10595 0.0685,-0.081 0.0377,0.0233 0.16668,-0.0528 0.28669,-0.16916 0.16356,-0.15853 0.20925,-0.24713 0.18247,-0.35382 -0.0367,-0.14622 0.0517,-0.19669 0.1281,-0.0731 0.0263,0.0425 0.17686,-0.0608 0.39042,-0.26793 l 0.34764,-0.33714 -0.32763,0.42328 -0.32764,0.42328 0.16758,0.28594 c 0.0922,0.15727 0.17946,0.28595 0.19399,0.28595 0.0902,0 0.39968,-0.43685 0.40201,-0.56738 0.002,-0.10332 0.0202,-0.13031 0.0531,-0.0783 0.0346,0.0545 0.14422,-0.0513 0.35052,-0.33806 l 0.3002,-0.4173 -0.10475,-0.47081 c -0.14668,-0.6593 -0.0179,-0.73377 0.16974,-0.0982 0.0435,0.14737 0.10009,0.26795 0.12574,0.26795 0.0256,0 0.12218,-0.12895 0.21454,-0.28654 0.24932,-0.42544 0.24705,-0.30353 -0.004,0.24089 -0.18179,0.39347 -0.22116,0.55236 -0.22116,0.89258 0,0.23391 -0.0274,0.4139 -0.063,0.4139 -0.0347,0 -0.063,-0.11347 -0.063,-0.25216 0,-0.1387 -0.0213,-0.25109 -0.0473,-0.24978 -0.026,0.001 -0.15055,0.15126 -0.27677,0.33321 -0.25839,0.37245 -0.26124,0.35353 0.15219,1.00967 l 0.19224,0.30508 0.28926,-0.0407 c 0.1591,-0.0224 0.34171,-0.0561 0.40581,-0.0749 0.097,-0.0284 0.10953,-0.009 0.0746,0.11391 -0.13476,0.4754 -0.12534,0.4682 -0.76027,0.5816 -0.32632,0.0583 -0.82821,0.12334 -1.11532,0.14455 l -0.522,0.0386 -0.31521,0.34849 c -0.53177,0.58791 -1.41361,1.66071 -1.71994,2.09239 -0.15994,0.22538 -0.34192,0.44685 -0.40442,0.49215 -0.0625,0.0453 -0.11363,0.12358 -0.11363,0.17394 0,0.136 -0.65712,1.12953 -0.82471,1.24691 -0.0797,0.0558 -0.13236,0.11081 -0.11711,0.12226 0.0542,0.0407 2.45849,0.31465 2.4895,0.28364 0.0174,-0.0174 -0.18421,-0.0664 -0.44795,-0.10893 -0.26373,-0.0425 -0.46641,-0.0905 -0.4504,-0.10646 0.016,-0.016 0.60402,6e-4 1.3067,0.0369 2.50753,0.12961 3.53125,0.0334 1.32215,-0.1243 -1.00734,-0.0719 -2.63651,-0.28173 -2.70291,-0.34813 -0.0207,-0.0207 0.28827,-0.0205 0.6865,2.8e-4 l 0.72405,0.0378 -0.39804,-0.15311 c -0.21892,-0.0842 -0.41288,-0.16795 -0.43101,-0.18609 -0.0526,-0.0526 2.80071,0.024 3.28768,0.0882 0.24272,0.032 0.61081,0.0849 0.818,0.11756 0.2616,0.0412 0.38954,0.0386 0.41873,-0.009 0.0231,-0.0374 0.35006,-0.0883 0.72653,-0.11305 0.37648,-0.0248 0.54266,-0.0502 0.36929,-0.0565 -0.2511,-0.009 -0.29235,-0.0247 -0.20283,-0.0768 0.0694,-0.0404 0.25034,-0.0475 0.47281,-0.0186 0.29305,0.0381 0.33098,0.0554 0.20284,0.0926 -0.0902,0.0262 0.14893,0.0484 0.55933,0.052 0.6012,0.005 0.70535,-0.008 0.6451,-0.0803 -0.0395,-0.0476 -0.0559,-0.12824 -0.0363,-0.17917 0.0195,-0.0509 -0.0664,-0.24602 -0.19094,-0.43353 -0.12456,-0.1875 -0.49802,-0.87992 -0.8299,-1.53871 -0.33188,-0.65879 -0.70132,-1.36076 -0.82099,-1.55994 -0.23697,-0.39443 -0.23825,-0.59153 -0.004,-0.58599 0.0779,0.002 0.17571,0.0252 0.21731,0.052 0.13128,0.0844 0.67199,1.03873 1.37122,2.42015 0.37162,0.73417 0.71129,1.38356 0.75483,1.4431 0.068,0.093 0.26094,0.11563 1.36585,0.16046 0.70768,0.0287 1.43563,0.0645 1.61766,0.0796 0.18203,0.0151 0.33097,0.008 0.33097,-0.0151 0,-0.0233 -0.12205,-0.20564 -0.27122,-0.40507 -0.14917,-0.19944 -0.62435,-0.92088 -1.05595,-1.60322 -0.99754,-1.57705 -1.6999,-2.66797 -1.8399,-2.85777 l -0.10953,-0.1485 -0.71001,0.20778 c -0.39051,0.11429 -0.72056,0.21811 -0.73345,0.23072 -0.0129,0.0126 0.12425,0.20853 0.30475,0.43537 0.18051,0.22685 0.31833,0.44204 0.30628,0.47821 -0.0121,0.0362 -0.13037,-0.0765 -0.26293,-0.25027 -0.13255,-0.17381 -0.33529,-0.39882 -0.45054,-0.50001 l -0.20955,-0.18398 0.21806,-0.21136 c 0.11994,-0.11624 0.4638,-0.58618 0.76414,-1.0443 0.30034,-0.45812 0.55492,-0.82409 0.56574,-0.81327 0.032,0.032 -0.33324,0.81518 -0.51267,1.09942 -0.0911,0.14425 -0.14053,0.26227 -0.10992,0.26227 0.0306,0 0.35664,-0.068 0.72452,-0.15118 0.57121,-0.1291 0.72857,-0.19377 1.07769,-0.4429 0.70317,-0.50177 1.41412,-1.28478 2.20812,-2.43193 0.20192,-0.29172 0.23306,-0.31673 0.19628,-0.1576 -0.14627,0.63281 -0.75589,1.57988 -1.46414,2.27459 l -0.45508,0.44639 0.27984,-0.0425 c 0.15391,-0.0234 0.28848,-0.054 0.29903,-0.0681 0.0106,-0.0141 0.1195,-0.15333 0.24211,-0.30935 0.12261,-0.15603 0.55342,-0.7763 0.95735,-1.37837 0.40394,-0.60207 0.73444,-1.06844 0.73444,-1.03638 0,0.11575 -0.31006,0.84599 -0.50989,1.20087 -0.11236,0.19954 -0.35566,0.58493 -0.54066,0.85641 -0.18501,0.27148 -0.33637,0.50465 -0.33637,0.51816 0,0.0135 0.13005,0.0143 0.289,0.002 0.25219,-0.0199 0.30947,-0.0529 0.44962,-0.25914 0.1566,-0.23045 0.15789,-0.24099 0.0516,-0.42095 -0.12847,-0.21747 -0.0833,-0.30333 0.0812,-0.15445 0.0636,0.0576 0.13385,0.10469 0.15607,0.10469 0.0222,0 0.18763,-0.21986 0.36757,-0.48858 0.29723,-0.44387 0.74838,-1.00561 0.74838,-0.93184 0,0.0999 -0.34159,0.77065 -0.61303,1.20367 l -0.31859,0.50823 0.14496,0.24019 0.14496,0.24019 0.15331,-0.24409 c 0.28905,-0.46021 0.30028,-0.49607 0.22102,-0.70606 -0.0928,-0.24575 -0.0155,-0.33488 0.12117,-0.13978 0.0999,0.1426 0.10577,0.14346 0.19072,0.0277 0.0783,-0.10665 0.0832,-0.0915 0.0461,0.14166 -0.0228,0.1436 -0.0138,0.31073 0.0202,0.37141 0.055,0.0983 0.0946,0.0802 0.36373,-0.16652 0.71472,-0.65522 1.45394,-1.92149 1.63663,-2.80352 0.12481,-0.60262 0.083,-1.1027 -0.127,-1.51742 -0.0805,-0.15901 -0.13131,-0.32832 -0.11291,-0.37625 0.0199,-0.0519 -0.008,-0.0872 -0.0679,-0.0872 -0.0557,0 -0.10131,-0.046 -0.10131,-0.10214 0,-0.15842 0.67244,-0.0917 0.9515,0.0944 l 0.21478,0.14323 -0.40977,-0.0375 -0.40978,-0.0375 0.23641,0.13981 c 0.2646,0.15647 0.30958,0.24815 0.0946,0.19274 -0.12001,-0.0309 -0.12995,-0.022 -0.0646,0.0578 0.16212,0.19795 0.28275,0.8681 0.22933,1.27402 -0.028,0.21295 -0.0459,0.42973 -0.0397,0.48174 0.006,0.052 -0.0572,0.32152 -0.1409,0.5989 -0.24356,0.80709 -1.08125,2.1119 -1.35584,2.1119 -0.10172,0 -0.10921,0.0264 -0.0581,0.20447 0.11677,0.40715 0.0152,0.52155 -0.12316,0.13879 -0.0446,-0.12327 -0.0999,-0.21397 -0.12298,-0.20156 -0.0231,0.0124 -0.14552,0.0699 -0.27211,0.12779 -0.22421,0.10252 -0.22874,0.11141 -0.17487,0.34341 0.0708,0.30484 0.0707,0.33273 -0.001,0.33273 -0.0327,0 -0.12289,-0.1971 -0.20048,-0.438 -0.0776,-0.2409 -0.16162,-0.42529 -0.18674,-0.40977 -0.0251,0.0155 -0.13374,0.18426 -0.24136,0.37496 -0.18637,0.33022 -0.32069,0.44145 -0.32069,0.26554 0,-0.0446 -0.078,-0.17359 -0.17336,-0.28653 l -0.17337,-0.20535 -0.22177,0.3023 c -0.13555,0.18477 -0.27035,0.30229 -0.34673,0.30229 -0.0687,0 -0.11787,-0.0355 -0.1092,-0.0788 0.0359,-0.17964 -0.6088,-0.005 -0.86516,0.23485 -0.20161,0.18833 -0.46182,0.25012 -0.53752,0.12764 -0.0504,-0.0815 -0.15761,-0.0816 -0.15761,-1.1e-4 0,0.0346 0.24365,0.36795 0.54144,0.74074 0.86371,1.08125 1.50741,2.10247 2.13595,3.38861 0.32194,0.65879 0.6038,1.25808 0.62634,1.33175 0.0322,0.10524 0.11015,0.14313 0.36366,0.17676 0.23216,0.0308 0.30348,0.062 0.25422,0.11127 -0.0971,0.0971 -0.51043,0.1521 -1.82546,0.24276 -0.92876,0.064 -1.15052,0.097 -1.15052,0.17109 0,0.0626 -0.0351,0.0774 -0.11032,0.0467 -0.0607,-0.0248 -0.56423,-0.0681 -1.11899,-0.0962 -0.55477,-0.0281 -1.17889,-0.0804 -1.38693,-0.11613 -0.20803,-0.0358 -0.90307,-0.0777 -1.54452,-0.0933 -0.64145,-0.0156 -1.02515,-0.0151 -0.85267,9.1e-4 0.17249,0.0161 0.3503,0.0596 0.39514,0.0969 0.0475,0.0394 0.31817,0.0625 0.64778,0.0552 0.60843,-0.0134 0.72929,0.0582 0.36136,0.21412 -0.13864,0.0587 -0.17431,0.0969 -0.11032,0.1181 0.20939,0.0693 2.2857,0.41942 2.48721,0.41942 0.11888,0 0.23368,0.0284 0.25511,0.063 0.0214,0.0347 0.24296,0.0663 0.4923,0.0703 0.43192,0.007 0.4027,0.0157 -0.61838,0.18612 -0.58944,0.0984 -1.41214,0.20842 -1.82822,0.24453 -0.41607,0.0361 -0.95508,0.0933 -1.19779,0.12703 -0.24271,0.0338 -0.72498,0.0656 -1.07171,0.0708 -0.34673,0.005 -0.81482,0.0302 -1.0402,0.0555 -0.40722,0.0458 -0.40594,0.0461 0.20489,0.0557 0.33806,0.005 0.61466,0.0338 0.61466,0.0634 0,0.11204 -2.47958,0.28243 -3.24666,0.22311 z m 1.119,-0.69692 c -0.0434,-0.0175 -0.11427,-0.0175 -0.15761,0 -0.0433,0.0175 -0.008,0.0318 0.0788,0.0318 0.0867,0 0.12215,-0.0143 0.0788,-0.0318 z m 1.40268,-0.0571 c -0.0347,-0.0142 -0.27981,-0.0488 -0.54475,-0.0768 -0.38466,-0.0407 -0.47538,-0.0345 -0.45031,0.0308 0.0224,0.0584 0.17839,0.0804 0.54475,0.0768 0.28234,-0.003 0.48498,-0.0166 0.45031,-0.0308 z m 3.05753,-0.15067 c 0.23589,-0.0326 0.28155,-0.0508 0.14285,-0.0568 -0.11214,-0.005 -0.53767,-0.0772 -0.94563,-0.16067 -0.71585,-0.1465 -0.80337,-0.15035 -2.50692,-0.11032 l -1.76517,0.0415 0.97715,0.0793 c 0.53743,0.0436 1.44523,0.10876 2.01734,0.14475 0.5721,0.036 1.06856,0.0761 1.10323,0.0891 0.1026,0.0385 0.60464,0.0247 0.97715,-0.0268 z m -5.61073,-0.13268 c -1.23631,-0.14426 -1.64591,-0.1427 -0.69346,0.003 0.39874,0.0608 0.93775,0.11079 1.1978,0.111 0.40109,3.1e-4 0.32458,-0.0169 -0.50434,-0.11365 z m -1.52876,-0.16559 c -0.0607,-0.0159 -0.15997,-0.0159 -0.22065,0 -0.0607,0.0159 -0.011,0.0288 0.11032,0.0288 0.12136,0 0.171,-0.013 0.11033,-0.0288 z m -0.53586,-0.0613 c -0.0433,-0.0175 -0.11426,-0.0175 -0.15761,0 -0.0433,0.0175 -0.008,0.0318 0.0788,0.0318 0.0867,0 0.12214,-0.0143 0.0788,-0.0318 z m 2.42711,-0.002 c -0.0607,-0.0159 -0.15997,-0.0159 -0.22064,0 -0.0607,0.0159 -0.011,0.0288 0.11032,0.0288 0.12135,0 0.171,-0.013 0.11032,-0.0288 z m -1.07171,-0.12608 c -0.0607,-0.0159 -0.15997,-0.0159 -0.22065,0 -0.0607,0.0159 -0.011,0.0288 0.11033,0.0288 0.12135,0 0.171,-0.013 0.11032,-0.0288 z m -3.07952,-0.4671 c -0.11147,-0.11148 -0.17727,-0.12557 -0.41783,-0.0895 -0.60443,0.0906 -0.47595,0.18754 0.28221,0.21286 l 0.26793,0.009 z m 0.27506,-0.77182 c 0.55007,-1.07154 1.45764,-2.29361 2.29985,-3.0968 0.21686,-0.20681 0.39425,-0.39121 0.3942,-0.40978 -5e-5,-0.0186 -0.0979,-0.0371 -0.2174,-0.0411 -0.2045,-0.007 -0.25574,0.0395 -0.87,0.78803 -0.8033,0.97892 -1.27812,1.60676 -1.865,2.46601 -0.43179,0.63217 -0.44573,0.66378 -0.3101,0.70294 0.28917,0.0835 0.33094,0.0534 0.56845,-0.40927 z m 14.09421,0.16178 c -0.11053,-0.25712 -1.35509,-2.27688 -2.14933,-3.4881 -0.54647,-0.83334 -1.03578,-1.59679 -1.08736,-1.69653 l -0.0938,-0.18136 -0.33109,0.0977 c -0.1821,0.0537 -0.34196,0.10799 -0.35524,0.1206 -0.0133,0.0126 0.0576,0.11621 0.1576,0.2302 0.44147,0.50342 2.44977,3.63412 2.84965,4.44227 0.20921,0.4228 0.24096,0.45665 0.44923,0.47895 0.42869,0.0459 0.58121,0.0449 0.56032,-0.004 z m -10.98552,-4.34382 c 0.11583,-0.0847 0.11498,-0.0948 -0.0315,-0.37084 -0.0828,-0.15607 -0.17091,-0.27579 -0.19581,-0.26603 -0.0249,0.01 -0.22042,0.18062 -0.43449,0.3797 l -0.38923,0.36195 0.46596,-0.009 c 0.28381,-0.005 0.51251,-0.0429 0.58504,-0.0959 z m 0.75307,-0.0848 c 0.0878,-0.097 0.0979,-0.14516 0.0421,-0.2009 -0.0557,-0.0557 -0.11086,-0.0381 -0.22983,0.0737 -0.15686,0.14736 -0.16058,0.25477 -0.009,0.25477 0.0446,0 0.13302,-0.0574 0.19652,-0.12757 z m 0.25082,0.0645 c -0.0214,-0.0347 -0.0782,-0.063 -0.12608,-0.063 -0.0479,0 -0.10466,0.0284 -0.12609,0.063 -0.0222,0.0359 0.0321,0.063 0.12609,0.063 0.094,0 0.14826,-0.0271 0.12608,-0.063 z m 0.57125,-0.0366 c 0.1276,-0.0343 0.12674,-0.0413 -0.0473,-0.38628 -0.0975,-0.19325 -0.17723,-0.38992 -0.17723,-0.43705 0,-0.1463 -0.11263,-0.0949 -0.28378,0.12949 l -0.16412,0.21517 0.17667,0.25525 c 0.17659,0.25514 0.25166,0.28897 0.49575,0.22342 z m -1.12327,-0.89995 -0.14621,-0.33129 -0.20606,0.25641 -0.20607,0.25642 0.17693,0.24856 0.17693,0.24857 0.17534,-0.17369 0.17534,-0.17369 z m -4.0646,6.6297 c 0.0613,-0.016 0.14644,-0.0149 0.18913,0.002 0.0427,0.0173 -0.008,0.0304 -0.11153,0.0291 -0.10402,-0.001 -0.13894,-0.0154 -0.0776,-0.0314 z m -0.47401,-0.0611 c 0.0433,-0.0175 0.11426,-0.0175 0.1576,0 0.0433,0.0175 0.008,0.0318 -0.0788,0.0318 -0.0867,0 -0.12215,-0.0143 -0.0788,-0.0318 z m -0.50434,-0.063 c 0.0433,-0.0175 0.11426,-0.0175 0.15761,0 0.0433,0.0175 0.008,0.0318 -0.0788,0.0318 -0.0867,0 -0.12214,-0.0143 -0.0788,-0.0318 z m 0.12362,-1.13554 c -0.0173,-0.0286 0.14988,-0.34865 0.3716,-0.71119 0.22172,-0.36254 0.40313,-0.69588 0.40313,-0.74074 0,-0.0865 0.078,-0.10862 0.14536,-0.0413 0.0222,0.0222 -0.10095,0.31525 -0.27357,0.65132 -0.30213,0.58817 -0.58056,0.95074 -0.64652,0.8419 z m -0.94317,-0.52989 c -0.13043,-0.076 -0.15503,-0.55545 -0.0347,-0.6758 0.0878,-0.0879 0.5451,-0.0998 0.67487,-0.0177 0.13419,0.085 0.097,0.43995 -0.064,0.61137 -0.14815,0.1577 -0.38772,0.19183 -0.57616,0.0821 z m 0.5201,-0.38092 c 0,-0.0895 -0.0461,-0.11837 -0.18912,-0.11837 -0.15819,0 -0.18913,0.025 -0.18913,0.15299 0,0.0942 0.0424,0.16254 0.11032,0.17785 0.14506,0.0327 0.26793,-0.0647 0.26793,-0.21247 z m 11.47875,-0.36019 c -0.40665,-0.82106 -0.50328,-1.24183 -0.16157,-0.70356 0.20005,0.31513 0.65828,1.311 0.65981,1.43396 0.003,0.2073 -0.13026,0.0126 -0.49824,-0.7304 z m 1.33136,0.60747 c -0.0975,-0.0975 -0.0963,-0.36421 0.003,-0.68448 0.0968,-0.31181 0.27276,-0.37542 0.56614,-0.20467 0.17089,0.0994 0.20933,0.16311 0.2249,0.37243 0.0266,0.35733 -0.16528,0.59237 -0.48356,0.59237 -0.12924,0 -0.26903,-0.0341 -0.31064,-0.0756 z m 0.54406,-0.39033 c 0.0232,-0.20292 -0.0982,-0.32023 -0.22358,-0.21616 -0.0445,0.0369 -0.0809,0.15076 -0.0809,0.25295 0,0.15661 0.0223,0.18262 0.14185,0.16564 0.10356,-0.0147 0.14746,-0.0693 0.16265,-0.20243 z m -1.41445,-1.87948 c -0.10208,-0.11627 -0.3232,-0.45171 -0.49137,-0.74542 -0.16818,-0.29372 -0.3871,-0.67033 -0.4865,-0.83691 -0.0994,-0.16658 -0.153,-0.28574 -0.11911,-0.26479 0.0339,0.0209 0.30685,0.43443 0.60655,0.91884 0.2997,0.48441 0.56963,0.89602 0.59983,0.91468 0.0302,0.0187 0.0548,-0.20177 0.0547,-0.48987 -2e-4,-0.43452 -0.0243,-0.56143 -0.14142,-0.74446 l -0.14118,-0.22065 -0.0211,0.21685 c -0.0135,0.13886 0.0287,0.30541 0.11733,0.46311 0.12843,0.2285 0.13003,0.24465 0.0222,0.22389 -0.0639,-0.0123 -0.15193,-0.0931 -0.19563,-0.17942 -0.0938,-0.18542 -0.1082,-0.79493 -0.0201,-0.84941 0.11605,-0.0717 0.37374,0.16733 0.47982,0.4451 0.11361,0.29746 0.10363,1.03438 -0.0169,1.24978 -0.0552,0.0986 -0.081,0.088 -0.2472,-0.10132 z m -4.37469,-1.11413 c 0,-0.0304 0.0424,-0.0905 0.0943,-0.13356 0.0519,-0.043 0.12657,-0.18603 0.16604,-0.31778 0.0423,-0.1412 0.12007,-0.25218 0.18942,-0.27031 0.10395,-0.0272 0.11765,-0.0975 0.11765,-0.60404 0,-0.80213 0.14951,-0.74457 0.20447,0.0787 l 0.0162,0.24222 0.4413,-0.54114 c 0.24271,-0.29763 0.46257,-0.54139 0.48857,-0.54168 0.0698,-7.8e-4 0.0574,0.46888 -0.0175,0.66605 -0.0356,0.0937 -0.0531,0.18215 -0.0388,0.19645 0.0143,0.0143 0.26037,-0.28042 0.54682,-0.65492 0.59592,-0.7791 0.6682,-0.8614 0.59805,-0.68092 -0.0269,0.0693 -0.0712,0.25577 -0.0983,0.41428 -0.0271,0.1585 -0.1195,0.4338 -0.20535,0.61176 -0.0859,0.17797 -0.1329,0.33197 -0.10455,0.34223 0.066,0.0239 -0.0246,0.13271 -0.43501,0.52298 l -0.33148,0.31521 0.156,-0.33831 c 0.0858,-0.18608 0.18673,-0.36906 0.2243,-0.40662 0.0376,-0.0376 0.0683,-0.0939 0.0683,-0.12519 0,-0.0313 -0.15603,0.14254 -0.34673,0.38626 -0.1907,0.24373 -0.34695,0.48067 -0.34722,0.52654 -4.5e-4,0.0758 -0.26799,0.24101 -0.39033,0.24101 -0.10475,0 -0.0431,-0.16838 0.17289,-0.47217 0.20822,-0.29287 0.524,-1.13403 0.45255,-1.20549 -0.0175,-0.0175 -0.13916,0.14711 -0.27029,0.36585 -0.13113,0.21873 -0.31453,0.49699 -0.40754,0.61835 -0.093,0.12136 -0.21898,0.32703 -0.27991,0.45705 -0.0687,0.1465 -0.1546,0.23641 -0.22597,0.23641 -0.0633,0 -0.13271,0.0284 -0.15414,0.063 -0.048,0.0776 -0.28369,0.084 -0.28369,0.008 z m -12.321,-1.2343 c -0.0549,-0.36612 0.0155,-0.84066 0.13468,-0.90733 0.0795,-0.0445 0.0735,-0.11334 -0.0428,-0.49639 -0.12456,-0.41007 -0.16427,-0.46742 -0.50933,-0.73537 -0.20583,-0.15985 -0.37423,-0.27491 -0.37423,-0.2557 0,0.0192 0.14184,0.25006 0.31521,0.513 0.35123,0.53272 0.3882,0.66888 0.17336,0.63836 -0.12429,-0.0177 -0.15508,0.0267 -0.24882,0.35811 -0.15856,0.56064 -0.26536,0.85107 -0.31297,0.85107 -0.0834,0 -0.0402,-0.59669 0.0761,-1.05159 0.11618,-0.45427 0.11077,-0.65055 -0.0179,-0.65055 -0.0819,0 -0.5855,0.5043 -0.6296,0.63042 -0.025,0.0715 -0.0518,0.077 -0.10982,0.0225 -0.057,-0.0535 -0.059,-0.10517 -0.008,-0.20074 0.0379,-0.0708 0.0689,-0.18513 0.0689,-0.2541 0,-0.15245 0.29201,-0.51332 0.41537,-0.51332 0.11901,0 0.12043,0.005 -0.13169,-0.44129 -0.12135,-0.2147 -0.22064,-0.41161 -0.22064,-0.43758 0,-0.026 -0.062,-0.10125 -0.1378,-0.16731 l -0.1378,-0.12009 0.1378,0.22809 c 0.14692,0.24318 0.17692,0.53119 0.0714,0.68602 -0.14886,0.21853 -1.32076,-1.32417 -1.67829,-2.20933 -0.34,-0.84174 -0.41404,-1.31069 -0.38142,-2.41577 0.0165,-0.55943 0.0504,-1.07844 0.0753,-1.15335 0.0424,-0.12778 0.0195,-0.13895 -0.37043,-0.18071 -0.45291,-0.0485 -0.53167,-0.11739 -0.21076,-0.18434 0.45123,-0.0942 0.73357,-0.10593 0.86413,-0.0361 0.12073,0.0646 0.13599,0.12279 0.12966,0.49439 -0.0241,1.41403 0.18438,2.70787 0.58503,3.63105 l 0.13907,0.32046 0.0385,-0.47284 c 0.0307,-0.37741 0.0855,-0.56189 0.27127,-0.91411 0.12804,-0.2427 0.21457,-0.38453 0.1923,-0.31519 -0.0945,0.29409 -0.21803,1.32695 -0.18389,1.53703 0.0817,0.50283 0.10492,0.57488 0.18519,0.57488 0.0604,0 0.0763,-0.0742 0.0572,-0.26793 -0.025,-0.25462 -0.0136,-0.24131 0.23045,0.26793 0.28257,0.58968 0.41362,0.75018 0.97416,1.19305 0.48367,0.38214 0.56827,0.43229 0.52088,0.30882 -0.02,-0.0522 -0.0155,-0.12868 0.01,-0.17001 0.0286,-0.0463 0.0779,0.0202 0.12854,0.17362 0.0698,0.21139 0.17639,0.31348 0.70993,0.67975 0.34531,0.23705 0.6891,0.48237 0.76398,0.54515 0.19369,0.16239 -0.8134,-0.37035 -1.06979,-0.56591 -0.11688,-0.0891 -0.21251,-0.14748 -0.21251,-0.12963 0,0.0179 0.085,0.24109 0.18891,0.49606 0.1039,0.25497 0.189,0.49905 0.18912,0.54239 3.6e-4,0.12877 -0.16624,0.0897 -0.26863,-0.063 -0.10031,-0.14962 -0.10271,-0.1404 -0.19167,0.7358 -0.0248,0.24411 -0.15505,0.16609 -0.19772,-0.11841 z m 2.38086,-0.0107 c -0.13127,-0.20034 -0.20828,-1.28436 -0.0912,-1.28436 0.0389,0 0.0712,0.0922 0.0717,0.20488 5.5e-4,0.11269 0.0447,0.3751 0.0982,0.58314 0.0535,0.20804 0.11307,0.44208 0.13245,0.5201 0.0483,0.19449 -0.0774,0.18035 -0.21115,-0.0238 z m -1.28133,-1.9929 c -1.07587,-0.46514 -1.63124,-0.76486 -1.73832,-0.9381 -0.0902,-0.14602 0.0426,-0.11287 0.36028,0.0899 0.18582,0.11861 0.63572,0.36563 0.99979,0.54893 0.71776,0.36137 0.72704,0.36676 0.68821,0.39968 -0.0144,0.0122 -0.15393,-0.0329 -0.30996,-0.10039 z m 3.34123,-1.70856 c 0,-0.32388 0.0396,-0.72032 0.0879,-0.88097 l 0.0879,-0.2921 -0.22975,-0.037 c -0.35377,-0.057 -1.26996,-0.34266 -1.26996,-0.39592 0,-0.0261 0.0856,-0.0979 0.19014,-0.15973 0.19863,-0.11733 0.23746,-0.10679 0.96038,0.26073 0.026,0.0132 0.0467,4e-4 0.0461,-0.0285 -6.6e-4,-0.0289 -0.18928,-0.16254 -0.41915,-0.29699 -0.3957,-0.23146 -0.42666,-0.23944 -0.58193,-0.14998 -0.32626,0.18799 -0.61659,0.25052 -0.75674,0.163 -0.11998,-0.0749 -0.10587,-0.0882 0.20032,-0.18834 0.18117,-0.0593 0.4145,-0.10976 0.51852,-0.11222 l 0.18912,-0.004 -0.18912,-0.15503 c -0.10402,-0.0853 -0.2053,-0.15604 -0.22506,-0.15729 -0.0198,-0.001 -0.14743,0.093 -0.28369,0.20939 -0.29034,0.24804 -0.52623,0.34008 -0.59332,0.23152 -0.0441,-0.0713 -0.18784,-0.051 -0.71039,0.10068 -0.0707,0.0205 -0.11032,-0.002 -0.11032,-0.0638 0,-0.0981 0.34778,-0.22685 0.61466,-0.22751 0.0997,-2.5e-4 0.14184,-0.0378 0.14184,-0.12643 0,-0.14448 -0.0639,-0.1519 -0.56358,-0.0654 -0.19279,0.0334 -0.59166,0.0941 -0.88638,0.13496 -0.87025,0.12065 -0.81877,0.0662 -0.80221,0.84898 0.0135,0.63907 0.0103,0.65774 -0.0681,0.39617 -0.0452,-0.15097 -0.0987,-0.43053 -0.11886,-0.62123 -0.0201,-0.1907 -0.065,-0.38273 -0.0998,-0.42672 -0.0441,-0.0558 -0.0319,-0.11453 0.0401,-0.19409 0.10843,-0.11981 0.14409,-0.51395 0.0465,-0.51395 -0.12883,0 -0.22693,0.6888 -0.22672,1.59188 1.2e-4,0.55383 -0.0238,0.92193 -0.0592,0.91015 -0.097,-0.0323 -0.2194,-0.67248 -0.21932,-1.14663 7e-5,-0.40443 0.0203,-0.55585 0.15278,-1.14646 0.041,-0.18257 0.033,-0.19767 -0.0881,-0.16601 -0.28642,0.0749 -0.11344,-0.11273 0.2686,-0.29135 0.25575,-0.11957 0.41399,-0.23457 0.43539,-0.31644 0.0388,-0.14842 0.17152,-0.17475 0.17152,-0.034 0,0.10344 0.40643,0.13895 0.46708,0.0408 0.0667,-0.10786 -0.12702,-0.26529 -0.37272,-0.30294 -0.13858,-0.0212 -0.30088,-0.0811 -0.36067,-0.13295 -0.0967,-0.0839 -0.12574,-0.0832 -0.26288,0.007 -0.15949,0.1045 -0.9416,1.24635 -1.05128,1.53481 -0.11364,0.2989 -0.11501,0.11796 -0.002,-0.29647 0.14825,-0.54484 0.39118,-1.00557 0.70309,-1.33345 0.23895,-0.25119 0.24861,-0.27504 0.14245,-0.35173 -0.37476,-0.27073 -0.69155,-0.66178 -0.91934,-1.1348 -0.23897,-0.49625 -0.26002,-0.5201 -0.45914,-0.5201 -0.11477,0 -0.28607,0.0294 -0.38065,0.0654 -0.23072,0.0877 -0.36636,-0.0316 -0.18668,-0.1642 0.0673,-0.0497 0.0935,-0.0903 0.0583,-0.0903 -0.0353,0 -0.12965,0.0698 -0.20976,0.15505 l -0.14566,0.15504 0.16865,0.0769 c 0.25565,0.11648 0.18575,0.27855 -0.11235,0.26047 -0.24342,-0.0148 -0.35943,0.0522 -0.43469,0.25094 -0.0541,0.14276 -0.149,0.14132 -0.1867,-0.003 -0.0199,-0.0762 -0.15578,-0.14825 -0.41618,-0.22065 -0.21261,-0.0591 -0.42956,-0.10748 -0.48209,-0.10748 -0.16018,0 -0.10632,-0.18401 0.0666,-0.2274 0.15417,-0.0387 0.50348,-0.008 0.8466,0.0744 0.14397,0.0346 0.13716,0.0182 -0.0788,-0.18912 -0.13003,-0.12483 -0.23641,-0.24077 -0.23641,-0.25764 0,-0.0709 0.19717,-0.0217 0.40526,0.1011 l 0.22334,0.13177 0.26379,-0.22579 c 0.14509,-0.12419 0.34238,-0.26059 0.43844,-0.30311 0.16188,-0.0717 0.27315,-0.25308 0.20004,-0.32618 -0.0173,-0.0173 -0.0838,0.001 -0.14788,0.0412 -0.18137,0.11327 -0.22278,-4.7e-4 -0.0624,-0.17125 0.14011,-0.14913 0.27672,-0.75572 0.43434,-1.92851 0.0546,-0.40641 0.68083,-1.60745 1.26123,-2.419 0.3812,-0.53302 1.30899,-1.51305 1.77497,-1.87491 l 0.28369,-0.2203 0.74074,0.0271 0.74074,0.0271 0.005,0.16656 c 0.005,0.14792 0.0193,0.1361 0.1303,-0.10558 0.0962,-0.20941 0.14379,-0.25655 0.2065,-0.2045 0.062,0.0515 0.12331,0.007 0.25652,-0.18492 0.0963,-0.1389 0.19742,-0.25255 0.2248,-0.25255 0.0274,0 -0.0189,0.17513 -0.10273,0.38917 -0.0839,0.21404 -0.14094,0.40074 -0.1268,0.41488 0.0141,0.0141 0.083,-0.005 0.15305,-0.0424 0.16015,-0.0857 0.57692,-0.0894 0.57692,-0.005 0,0.0347 -0.0533,0.063 -0.11836,0.063 -0.0651,0 -0.1504,0.0386 -0.18955,0.0858 -0.0578,0.0696 -0.005,0.0991 0.28074,0.15645 0.48175,0.0967 1.06716,0.41868 1.4497,0.79723 0.36732,0.36348 0.72087,1.0293 0.76784,1.44601 l 0.032,0.28379 0.2663,-0.0365 c 0.35313,-0.0484 0.50378,0.0435 0.63513,0.38743 0.0767,0.20094 0.19431,0.34667 0.3995,0.49516 0.24555,0.1777 0.31281,0.27506 0.4326,0.62614 0.078,0.22865 0.14185,0.47424 0.14185,0.54576 0,0.0715 0.007,0.13001 0.0158,0.12999 0.009,-1e-5 0.17179,-0.0611 0.36249,-0.13578 0.2644,-0.10351 0.49826,-0.13807 0.9849,-0.14553 l 0.63817,-0.01 0.51968,0.31318 c 0.48539,0.29253 0.53301,0.30837 0.7217,0.24013 0.33411,-0.12081 0.73137,-0.0882 1.03429,0.085 l 0.27382,0.15654 0.11809,-0.14154 c 0.0649,-0.0779 0.11903,-0.15952 0.12018,-0.1815 0.003,-0.0485 0.5573,-0.27088 0.94773,-0.37997 0.17912,-0.05 0.71359,-0.0802 1.44996,-0.0818 1.02848,-0.002 1.22431,0.0143 1.65747,0.13979 0.5951,0.17249 1.30064,0.51958 1.65033,0.81189 0.24334,0.20341 0.28873,0.21684 0.79196,0.23428 0.72311,0.0251 1.23021,0.30052 1.63419,0.88769 0.21153,0.30744 0.44416,0.95244 0.44416,1.23149 0,0.10511 0.013,0.19111 0.0288,0.19111 0.0158,0 0.15058,-0.11312 0.29945,-0.25138 0.14886,-0.13826 0.29194,-0.25174 0.31795,-0.25217 0.0947,-0.002 0.0437,0.15379 -0.10217,0.31098 -0.0822,0.0886 -0.19893,0.23906 -0.25941,0.33441 l -0.10998,0.17337 h 0.44764 c 0.43608,0 1.01683,0.11056 1.01683,0.19357 0,0.0485 -0.55756,0.22447 -0.89946,0.28392 -0.25965,0.0451 -0.41829,0.20594 -0.59232,0.60038 -0.0597,0.1353 -0.13144,0.24601 -0.15945,0.24601 -0.028,0 -0.0509,0.0567 -0.0509,0.12608 0,0.0693 0.007,0.12605 0.0158,0.12601 0.0695,-3.2e-4 0.9675,-0.20317 1.23959,-0.28001 0.33378,-0.0943 0.79191,-0.0767 0.8597,0.033 0.0175,0.0284 -0.0753,0.0684 -0.20629,0.089 -0.13098,0.0206 -0.42971,0.0806 -0.66383,0.13347 -0.23412,0.0528 -0.47525,0.0816 -0.53585,0.064 -0.0606,-0.0177 -0.29458,0.063 -0.51996,0.17926 l -0.40977,0.21136 0.49784,-0.0348 c 0.62047,-0.0434 0.60197,0.051 -0.0402,0.20533 -0.765,0.18386 -0.97508,0.39089 -0.7826,0.77124 0.10518,0.20786 0.16937,0.72954 0.10298,0.83696 -0.0715,0.11576 -0.17253,0.0216 -0.22286,-0.20781 -0.0659,-0.30041 -0.50792,-0.92062 -0.68839,-0.96592 -0.0838,-0.021 -0.25399,-0.005 -0.37816,0.0363 l -0.22576,0.0745 0.12793,0.20698 c 0.16065,0.25994 0.28102,0.85184 0.19144,0.94141 -0.0429,0.0429 -0.0637,0.0222 -0.0637,-0.0633 0,-0.20692 -0.57758,-0.99824 -0.7461,-1.0222 -0.0879,-0.0125 -0.13378,-0.053 -0.11514,-0.10153 0.0228,-0.0593 -0.0959,-0.0915 -0.44598,-0.12107 -0.26233,-0.0222 -0.56035,-0.0403 -0.66225,-0.0403 -0.18305,0 -0.18148,0.003 0.13033,0.24947 0.33096,0.2616 0.56291,0.53654 0.72029,0.85376 0.10715,0.21597 0.24994,0.96706 0.1994,1.04884 -0.0715,0.11569 -0.2153,0.0503 -0.2153,-0.0979 0,-0.24623 -0.38322,-0.89356 -0.74925,-1.26561 -0.52468,-0.53332 -0.87652,-0.73057 -1.47746,-0.8283 -0.70604,-0.11482 -0.99468,-0.11298 -0.94901,0.006 0.03,0.0783 -0.0497,0.0876 -0.52208,0.0608 -0.30664,-0.0174 -0.65682,-0.0581 -0.77817,-0.0905 -0.12136,-0.0324 -0.52699,-0.10432 -0.90141,-0.15988 -0.55852,-0.0829 -0.74697,-0.14045 -1.04944,-0.32064 -0.31742,-0.18908 -0.39788,-0.21205 -0.5787,-0.1652 l -0.21001,0.0544 0.38627,0.26231 c 0.37855,0.25707 0.65115,0.58939 0.65115,0.79379 0,0.1393 -0.0825,0.12939 -0.22398,-0.0269 -0.14174,-0.15663 -1.11501,-0.75711 -1.38191,-0.85261 -0.20924,-0.0749 -0.29369,-0.33283 -0.1467,-0.44812 0.11565,-0.0907 0.62964,-0.20859 0.90954,-0.20859 0.26373,0 0.70509,0.19097 0.87481,0.37851 0.10929,0.12077 0.11384,0.11837 0.23325,-0.12299 0.0809,-0.16353 0.18701,-0.2689 0.31605,-0.31388 0.29801,-0.10389 0.31451,-0.086 0.15587,0.16868 -0.27355,0.43922 -0.26961,0.45714 0.10036,0.45636 0.44339,-9.3e-4 0.8018,-0.0648 0.8018,-0.14287 0,-0.0352 0.0959,-0.20881 0.21313,-0.38576 0.29695,-0.44828 0.4255,-0.86258 0.46388,-1.49513 0.034,-0.56047 -0.11667,-1.50589 -0.24001,-1.50589 -0.0323,0 -0.0625,0.17731 -0.067,0.39401 l -0.008,0.39402 -0.0628,-0.32611 c -0.0832,-0.43216 -0.027,-0.65104 0.16742,-0.65104 0.19959,0 0.261,0.0883 0.37913,0.54495 0.1263,0.48824 0.13079,1.47513 0.009,1.8879 -0.0823,0.2781 -0.0819,0.29669 0.004,0.18339 0.0528,-0.0693 0.18622,-0.31702 0.2965,-0.55037 0.22671,-0.47968 0.33038,-0.54674 0.27098,-0.17527 -0.0684,0.42751 -0.2805,0.91014 -0.57039,1.29765 -0.29053,0.38838 -0.31098,0.47885 -0.0955,0.42249 0.14216,-0.0372 0.5639,-0.552 0.5639,-0.68836 0,-0.047 0.0267,-0.0855 0.0593,-0.0855 0.12853,0 0.13057,0.13768 0.006,0.41879 -0.0716,0.16179 -0.12221,0.30206 -0.11255,0.31172 0.01,0.01 0.4967,0.0266 1.0823,0.0375 l 1.06475,0.02 0.43487,-0.53563 c 0.23917,-0.29459 0.53054,-0.72685 0.64747,-0.96059 0.23951,-0.47874 0.34631,-1.06466 0.22148,-1.21506 -0.0496,-0.0598 -0.0536,-0.0941 -0.0109,-0.0941 0.25343,0 0.34828,0.72564 0.15845,1.21228 -0.14144,0.3626 -0.59137,1.05787 -0.90422,1.39727 l -0.25514,0.2768 0.26969,0.0282 c 0.30719,0.0321 0.35548,0.0144 0.24974,-0.0913 -0.10198,-0.10198 -0.094,-0.23851 0.014,-0.23851 0.0487,0 0.20279,0.0954 0.34235,0.21201 0.2029,0.16952 0.33061,0.2207 0.63719,0.25539 0.21089,0.0239 0.41156,0.026 0.44592,0.005 0.0363,-0.0224 -0.004,-0.12548 -0.0954,-0.24558 -0.27935,-0.36625 -0.164,-0.4698 0.22218,-0.19944 l 0.21886,0.15322 0.23896,-0.26354 c 0.13143,-0.14495 0.36777,-0.5249 0.5252,-0.84432 l 0.28624,-0.58077 -0.0974,-0.47111 c -0.17703,-0.85604 -0.5568,-1.42012 -1.13191,-1.68125 -0.24508,-0.11127 -0.60908,-0.16403 -0.60908,-0.0883 0,0.0185 0.0709,0.17358 0.15761,0.34464 0.0867,0.17106 0.1576,0.3687 0.1576,0.43919 0,0.2017 -0.18574,0.15129 -0.28265,-0.0767 -0.11984,-0.28192 -0.86696,-1.00116 -1.3244,-1.27499 -0.20776,-0.12436 -0.64748,-0.31436 -0.97715,-0.42223 -0.57516,-0.18819 -0.64277,-0.19613 -1.67113,-0.19646 -0.60622,-1.9e-4 -1.20862,0.032 -1.38692,0.0742 -0.17336,0.041 -0.4346,0.0913 -0.58052,0.11172 -0.14592,0.0205 -0.3107,0.0873 -0.36617,0.14864 -0.0937,0.10351 -0.0827,0.13102 0.15384,0.38611 0.42077,0.45372 0.72891,1.1495 0.87246,1.96998 0.0428,0.24457 -0.0875,0.1635 -0.14291,-0.089 -0.0228,-0.10388 -0.14768,-0.35178 -0.27748,-0.55089 -0.12979,-0.19911 -0.32908,-0.51103 -0.44285,-0.69315 -0.26563,-0.42519 -0.74959,-0.85936 -1.11232,-0.99789 -0.45098,-0.17223 -0.47167,-0.044 -0.0618,0.38265 0.19257,0.20042 0.35013,0.38896 0.35013,0.41898 0,0.03 -0.0496,0.01 -0.11032,-0.0452 -0.0607,-0.0549 -0.35146,-0.2478 -0.64618,-0.42869 -0.81348,-0.49927 -1.01488,-0.54895 -0.40803,-0.10065 0.79752,0.58917 1.47166,1.41894 1.29572,1.59488 -0.0488,0.0488 -0.0681,0.0422 -0.0682,-0.0233 -4e-5,-0.10251 -0.68985,-0.74917 -1.65636,-1.55272 l -0.64373,-0.53519 -0.041,0.20031 c -0.0815,0.39837 -0.18059,0.36532 -0.18059,-0.0602 v -0.40016 l -0.54311,0.0417 c -0.29871,0.023 -0.58949,0.0688 -0.64618,0.10195 -0.0749,0.0437 -0.0793,0.0607 -0.0162,0.0621 0.10349,0.002 0.0582,0.39233 -0.0831,0.71487 l -0.0881,0.20116 -0.005,-0.24866 -0.005,-0.24865 -0.15421,0.21713 c -0.0848,0.11943 -0.2043,0.28719 -0.26554,0.37281 l -0.11134,0.15567 -0.0367,-0.15564 c -0.0358,-0.15164 -0.0443,-0.14755 -0.33229,0.15954 -0.16255,0.17335 -0.29602,0.33645 -0.29661,0.36246 -0.002,0.0788 1.243,0.0505 2.04779,-0.0466 0.41608,-0.0502 0.8558,-0.0897 0.97715,-0.0877 0.20979,0.003 0.19882,0.0139 -0.22297,0.21404 -0.69082,0.32782 -1.31711,0.42826 -2.48006,0.3977 -0.98248,-0.0258 -0.98609,-0.0264 -1.45773,-0.25607 -0.47128,-0.22945 -0.95785,-0.52667 -1.27785,-0.78058 -0.40343,-0.32011 -1.42711,-2.15937 -1.8826,-3.3825 -0.23175,-0.62233 -0.63209,-2.09742 -0.62627,-2.30759 0.004,-0.13935 -0.0128,-0.14707 -0.23224,-0.10791 -0.13001,0.0232 -0.39241,0.0593 -0.58311,0.0803 -0.31359,0.0345 -0.39551,0.0793 -0.85704,0.46892 -0.63605,0.53694 -1.33128,1.26465 -1.81375,1.89847 -0.32774,0.43056 -0.39401,0.5699 -0.58314,1.22617 -0.11736,0.40722 -0.212,0.85489 -0.21031,0.99482 0.003,0.24885 0.009,0.24159 0.28078,-0.33161 0.34309,-0.72402 0.75174,-1.34317 1.13018,-1.71236 0.30324,-0.29582 0.37048,-0.30222 0.16635,-0.0158 -0.067,0.094 -0.27873,0.45253 -0.47059,0.79685 -0.34276,0.61517 -0.34659,0.62762 -0.21992,0.71634 0.15828,0.11086 0.13912,0.20688 -0.20067,1.00535 -0.14149,0.3325 -0.2479,0.68446 -0.2479,0.81996 0,0.13057 -0.0263,0.32903 -0.0584,0.44102 -0.0385,0.13413 -0.0362,0.21736 0.007,0.24388 0.0425,0.0262 0.0374,0.0574 -0.0144,0.0894 -0.0617,0.0381 -0.0471,0.12899 0.0648,0.40476 0.12321,0.30359 0.20534,0.39847 0.56137,0.64857 0.22938,0.16112 0.59563,0.43279 0.81389,0.6037 0.21826,0.17092 0.4133,0.2943 0.43341,0.27418 0.0201,-0.0201 0.0366,-0.10816 0.0366,-0.19565 0,-0.0875 0.0265,-0.14268 0.059,-0.12263 0.0363,0.0224 0.0393,-0.11761 0.008,-0.36364 -0.12372,-0.96874 0.0472,-1.87728 0.37258,-1.98056 0.19846,-0.063 0.2993,0.0962 0.48748,0.76931 0.21171,0.75732 0.37697,1.15237 0.77447,1.85135 0.31855,0.56014 0.44778,0.70544 0.58173,0.65404 0.0441,-0.0169 0.094,0.0224 0.11103,0.0874 0.029,0.11073 0.60092,0.62922 0.63497,0.57561 0.009,-0.0136 0.11243,-0.22983 0.23068,-0.48059 0.11826,-0.25076 0.2231,-0.44784 0.23298,-0.43796 0.01,0.01 -0.0688,0.2414 -0.17483,0.51448 l -0.19279,0.49651 0.14743,0.11298 c 0.1764,0.13518 0.87243,0.51395 0.87243,0.47477 0,-0.0151 -0.0472,-0.13737 -0.10493,-0.27162 -0.13702,-0.31878 -0.15237,-1.28943 -0.0253,-1.59951 0.14114,-0.34439 0.34232,-0.616 0.64232,-0.86718 0.15176,-0.12705 0.22718,-0.17417 0.16761,-0.10471 -0.0596,0.0695 -0.22269,0.37039 -0.36249,0.66871 -0.22532,0.48082 -0.25418,0.59553 -0.25418,1.01025 0,0.51752 0.1264,1.02968 0.31017,1.25672 0.11335,0.14005 0.15967,0.14811 0.8511,0.14811 0.55905,0 0.72413,0.0186 0.70107,0.0788 -0.0221,0.0577 0.0718,0.0788 0.35017,0.0788 0.34425,0 0.39528,-0.0177 0.53768,-0.18699 0.17018,-0.20224 0.55219,-0.31837 0.66761,-0.20295 0.0475,0.0475 0.005,0.0944 -0.14656,0.16037 -0.14754,0.0643 -0.17467,0.0933 -0.0876,0.0937 0.0693,2.5e-4 0.23802,-0.0489 0.37484,-0.10934 l 0.24876,-0.10981 -0.28028,-0.13009 c -0.15416,-0.0715 -0.32993,-0.1468 -0.39061,-0.16723 -0.16196,-0.0545 -0.13439,-0.22178 0.0439,-0.26653 0.21425,-0.0538 0.5415,0.0668 0.87746,0.32334 0.16565,0.12648 0.35732,0.21731 0.45859,0.21731 0.13595,0 0.15735,0.0166 0.0979,0.0761 -0.0595,0.0595 -0.0152,0.13875 0.20265,0.36249 0.37129,0.38136 0.64436,0.87259 0.53967,0.97084 -0.058,0.0544 -0.085,0.0493 -0.11038,-0.021 -0.0185,-0.0512 -0.13329,-0.17883 -0.25508,-0.28369 -0.12179,-0.10486 -0.37291,-0.32541 -0.55805,-0.49011 -0.18513,-0.16469 -0.34915,-0.29945 -0.36449,-0.29945 -0.0633,0 -0.39216,0.15934 -0.5507,0.26687 -0.0986,0.0669 -0.23114,0.10187 -0.31521,0.0832 -0.0798,-0.0177 -0.38619,0.007 -0.68091,0.0548 -0.29472,0.0478 -0.5004,0.0898 -0.45706,0.0932 0.17602,0.0139 0.0966,0.16417 -0.54799,1.03644 -0.11936,0.16152 -0.23874,0.29368 -0.26529,0.29368 -0.0822,0 0.32065,-0.83732 0.52749,-1.09647 l 0.19588,-0.24541 -0.33459,0.0322 c -0.25215,0.0242 -0.36157,0.0679 -0.44409,0.17732 -0.12105,0.16047 -0.58346,1.06194 -0.6886,1.34242 -0.064,0.17066 -0.24392,0.20724 -0.20521,0.0417 0.0102,-0.0436 0.0423,-0.26868 0.0714,-0.5002 0.0291,-0.23153 0.11293,-0.53871 0.18636,-0.68263 0.16245,-0.31845 0.16304,-0.32974 0.017,-0.32974 -0.0908,0 -0.17422,0.15613 -0.37874,0.70922 -0.14424,0.39007 -0.26204,0.77305 -0.26177,0.85107 3e-4,0.0843 -0.0379,0.14184 -0.0941,0.14184 -0.0773,0 -0.0946,-0.10746 -0.0946,-0.58888 z m -0.12609,-1.85459 c 0,-0.0263 -0.0496,-0.0776 -0.11032,-0.11398 -0.0607,-0.0363 -0.21671,-0.1306 -0.34673,-0.20943 -0.3203,-0.19418 -0.30091,-0.0545 0.0252,0.18177 0.25213,0.18264 0.43184,0.24159 0.43184,0.14164 z m 16.4575,-0.53526 c 0.18321,-0.21961 0.14828,-0.36477 -0.0371,-0.15409 -0.14805,0.16829 -0.19914,0.29594 -0.11844,0.29594 0.0204,0 0.0904,-0.0638 0.15551,-0.14185 z m -18.06586,-0.14265 c 0.17784,-0.14531 0.18231,-0.1599 0.0803,-0.26191 -0.12709,-0.12709 -0.13992,-0.11811 -0.26747,0.18716 -0.11331,0.2712 -0.073,0.28731 0.18717,0.0747 z m 0.69425,0.0323 c -0.0628,-0.0693 -0.14247,-0.12608 -0.17714,-0.12608 -0.0347,0 -0.0117,0.0567 0.0511,0.12608 0.0627,0.0694 0.14247,0.12608 0.17714,0.12608 0.0347,0 0.0117,-0.0567 -0.0511,-0.12608 z m -3.10071,-0.19046 c 0.15842,-0.0701 0.49536,-0.14922 0.74875,-0.17585 l 0.4607,-0.0484 -0.26541,-0.13935 c -0.43155,-0.22659 -1.08999,-0.15938 -1.08999,0.11125 0,0.0714 -0.0416,0.12764 -0.0946,0.12764 -0.0525,0 -0.0946,0.056 -0.0946,0.12608 0,0.1539 -0.016,0.15397 0.33507,-0.001 z m 2.0437,-0.30461 0.13298,-0.17987 -0.18775,-0.27719 c -0.45842,-0.67679 -0.83787,-1.57033 -1.1569,-2.72431 -0.06,-0.21715 -0.13123,-0.3568 -0.17456,-0.34236 -0.16399,0.0547 -0.29386,0.6354 -0.2925,1.308 0.002,0.93499 0.11156,1.56666 0.29287,1.68666 0.13483,0.0892 0.14184,0.0858 0.14184,-0.0704 0,-0.094 0.0802,-0.25243 0.18728,-0.37018 0.18341,-0.20162 0.25385,-0.15747 0.12698,0.0796 -0.11784,0.22018 -0.1181,0.49628 -5e-4,0.5336 0.0593,0.0188 0.25915,0.14717 0.44423,0.28526 0.18507,0.13808 0.34022,0.25106 0.34478,0.25106 0.005,0 0.0681,-0.0809 0.14125,-0.17986 z m 5.07208,-3.89907 c 0.23191,-0.16636 0.45534,-0.38081 0.49651,-0.47656 0.0953,-0.22162 0.0416,-0.56112 -0.17903,-1.13219 -0.13784,-0.35675 -0.21848,-0.47416 -0.40818,-0.59437 -0.14049,-0.089 -0.23641,-0.19943 -0.23641,-0.27213 0,-0.0673 -0.0329,-0.19458 -0.0732,-0.2829 -0.0634,-0.13913 -0.11298,-0.16057 -0.37142,-0.16057 -0.27162,0 -0.30208,-0.0152 -0.34107,-0.17059 -0.0415,-0.16543 -0.23566,-0.49815 -0.75887,-1.30055 -0.30839,-0.47294 -0.78161,-0.81753 -1.36681,-0.99528 -0.52005,-0.15796 -0.76534,-0.13431 -0.41414,0.0399 0.13003,0.0645 0.23641,0.14276 0.23641,0.1739 0,0.0311 -0.0355,0.0421 -0.0788,0.0244 -0.3009,-0.12318 -0.93254,-0.3118 -0.9582,-0.28614 -0.0439,0.0439 0.29961,1.32909 0.52328,1.95787 0.3984,1.11998 1.52839,3.45636 1.67172,3.45648 0.0392,3e-5 0.26991,0.10154 0.51262,0.22557 0.24271,0.12403 0.55477,0.26275 0.69346,0.30826 0.23479,0.0771 0.2652,0.0726 0.44129,-0.0649 0.10402,-0.0812 0.37888,-0.2838 0.6108,-0.45017 z m -1.98196,-1.6383 c -0.11065,-0.0289 -0.15932,-0.27175 -0.0545,-0.27175 0.0852,0 0.51153,-0.45816 0.51153,-0.54978 0,-0.0443 0.0426,-0.0806 0.0946,-0.0806 0.21491,0 0.0371,0.65711 -0.22802,0.84283 -0.0807,0.0565 -0.16173,0.0995 -0.18002,0.0955 -0.0183,-0.004 -0.0829,-0.0203 -0.14358,-0.0362 z m -0.60951,-1.09855 c -0.006,-0.28134 0.19546,-0.56012 0.40548,-0.56012 0.0821,0 0.16684,0.0284 0.18827,0.063 0.0214,0.0347 -0.0151,0.063 -0.0811,0.063 -0.14687,0 -0.28633,0.14926 -0.41234,0.4413 l -0.0952,0.22064 z m -1.48188,-2.34177 c -0.17075,-0.10826 -0.27572,-0.20841 -0.23327,-0.22256 0.092,-0.0307 0.57524,0.27684 0.57524,0.36602 0,0.0783 0.0231,0.088 -0.34197,-0.14346 z m -4.93532,5.07559 c 0.0179,-0.0953 0.0785,-0.31487 0.13474,-0.48783 0.0836,-0.25708 0.0857,-0.29734 0.0115,-0.22064 -0.079,0.0817 -0.2906,0.68634 -0.2906,0.83023 0,0.13018 0.11529,0.0329 0.14431,-0.12176 z m 11.6346,5.03048 c -0.23084,-0.0999 -0.48326,-0.19113 -0.56094,-0.20263 -0.18974,-0.0281 -0.31362,-0.22429 -0.19022,-0.30126 0.13629,-0.085 1.20946,-0.0538 1.39151,0.0404 0.14666,0.0759 0.14829,0.0816 0.0235,0.082 -0.21911,6.3e-4 -0.29762,0.15009 -0.14934,0.28428 0.15532,0.14057 0.16326,0.28425 0.0155,0.28122 -0.0607,-0.001 -0.29919,-0.084 -0.53003,-0.18397 z m 11.7475,-0.0492 c -0.27854,-0.0249 -0.3447,-0.15614 -0.0973,-0.19292 0.16045,-0.0239 0.46374,0.0904 0.46374,0.17467 0,0.0355 -0.0213,0.0596 -0.0473,0.0536 -0.026,-0.006 -0.16964,-0.022 -0.31919,-0.0353 z m 0.55904,-1.52755 c -0.20827,-0.12872 0.27923,-0.44342 0.68689,-0.44342 0.33922,0 0.32264,0.0835 -0.0442,0.22226 -0.1647,0.0623 -0.35646,0.15008 -0.42614,0.19502 -0.0791,0.051 -0.16049,0.0608 -0.2166,0.0261 z"
       id="path1"
       sodipodi:nodetypes="csssccscsscscsccsssscscssscsscssssssscccssscssccscssssssccsscsssssssccccsccscsssscssscsscsccsscssssssssscssscsssscccssscccsssccsssssssscsssssscssssscssssccssssssscssssssscccssssccssssssscccsssscsscsssssssssscssccssssssssssscscccccsccssccccsccsssssscscsccsscsssccccscccsscssssscssccsscssccsssscssssscssccscsscccscscccccsssccssssssssscsssccccccccccccccsssssssssssssssssccsssssssssscscccssccsssssscsscsscscsssccssccccsssscsssssssssscssssssssssssccccscssscsssssscsscsscscsscscssscsscsscssssssssssssscccscssccscssssscccsscscssscccccsssssssssccsssssscsssscsscscsssscsssccsssssssssscscsccsssccccsscscscsscssscsssssssccsssccccccsssssscsscsscsssssssccscssssssccssssssssssssscssssscsssssssssssssssccsssccsssssscsccsssssscsssssccscsscssssssssssccsssssssscssscscssccccscccssccscscssssscsssssscssssssccssssssscssssscssscsscssssssssscscccccsssssssssssssscsssccsssssssssccscssssssssscsscccscsccscssssccccssccsscssssscssssscsssssscsssscssssssssssscscssccsssscssscccssscscccccsscccssscc" /><path
       style="fill:#4d4d4d"
       d="m 92.579753,52.331077 c -0.0559,-0.0982 -0.28657,-0.34828 -1.695159,-1.83784 -0.85262,-0.90164 -1.1907,-1.28668 -3.43187,-3.9086 -0.53349,-0.62411 -1.63944,-1.9149 -2.45768,-2.8684 -1.5302,-1.78317 -2.08338,-2.43834 -4.58186,-5.42657 -0.79952,-0.95624 -1.83999,-2.18633 -2.31217,-2.73354 -0.94545,-1.0957 -1.67981,-2.04093 -1.68045,-2.163 -0.001,-0.19574 0.22602,-0.0179 1.04616,0.81954 1.13845,1.16244 1.9848,2.11454 4.24499,4.77542 1.01608,1.19622 2.46314,2.89835 3.21568,3.78252 2.1189,2.48951 2.39781,2.83011 6.16894,7.5335 0.22241,0.27739 0.682699,0.80464 1.022879,1.17169 0.34017,0.36704 0.62791,0.71871 0.6394,0.78148 0.0261,0.14261 -0.10815,0.198 -0.17886,0.0738 z m -10.166779,-5.84098 c -0.0808,-0.15603 -0.42132,-0.73759 -0.75659,-1.29236 -0.33528,-0.55477 -0.73319,-1.23562 -0.88426,-1.51301 -0.43084,-0.79106 -2.48028,-4.2943 -3.02419,-5.16943 -0.39327,-0.63275 -0.83978,-1.48617 -0.79894,-1.52701 0.0212,-0.0212 0.0477,-0.0267 0.0589,-0.0123 1.26329,1.62754 3.37466,5.17652 4.68501,7.87498 0.26097,0.53743 0.5735,1.1403 0.69452,1.33971 0.12101,0.19941 0.20934,0.41218 0.19628,0.47282 -0.0167,0.0775 -0.0674,0.026 -0.17075,-0.17344 z m -3.97626,-2.66352 c -0.0862,-0.18203 -0.52292,-0.9409 -0.9706,-1.68637 -0.78381,-1.30518 -1.65378,-2.94355 -1.5945,-3.00283 0.10725,-0.10724 2.81804,4.58848 2.81804,4.88151 0,0.22569 -0.0861,0.16022 -0.25294,-0.19231 z m -23.198646,-0.28686 c 0,-0.0597 0.40813,-0.46275 1.41844,-1.40079 0.27739,-0.25755 1.057526,-1.00812 1.733646,-1.66794 4.26886,-4.16595 8.41093,-7.77607 8.84747,-7.71124 0.0694,0.0103 0.13809,0.055 0.15271,0.0994 0.0326,0.0989 -0.21946,0.33535 -1.27754,1.1987 -0.96294,0.78572 -1.8043,1.51761 -3.53006,3.07076 -2.29285,2.06352 -2.95214,2.64514 -4.06649,3.58743 -0.60678,0.51308 -1.566856,1.36257 -2.133516,1.88774 -1.03378,0.95811 -1.14466,1.04876 -1.14466,0.93593 z m 10.727636,-1.89131 c 0.0115,-0.0278 0.13002,-0.21927 0.26325,-0.42553 0.13323,-0.20627 0.49637,-0.78638 0.80697,-1.28914 0.54133,-0.87622 0.90685,-1.32498 1.07753,-1.32291 0.0438,5.3e-4 0.12228,0.0282 0.17429,0.0615 0.0799,0.0511 0.0689,0.0844 -0.071,0.21498 -0.0911,0.085 -0.43926,0.56085 -0.77379,1.05752 -0.69853,1.0371 -1.27343,1.75412 -1.40644,1.75412 -0.0505,0 -0.0824,-0.0227 -0.0708,-0.0505 z m -1.90178,-1.4613 c 0,-0.0479 0.15074,-0.2876 0.33498,-0.5327 0.18424,-0.24511 0.52363,-0.72934 0.7542,-1.07607 0.67344,-1.01274 1.5406,-1.93143 1.9108,-2.02435 0.36596,-0.0918 0.5341,0.11681 0.20496,0.25435 -0.11574,0.0484 -0.29154,0.15174 -0.39067,0.22972 -0.18448,0.14514 -1.75948,1.94454 -2.36098,2.69737 -0.42415,0.53088 -0.45329,0.55991 -0.45329,0.45168 z m 7.81272,-0.13254 c -0.002,-0.0144 -0.0278,-0.39506 -0.0564,-0.84581 -0.0332,-0.52421 -0.0866,-0.885 -0.14835,-1.00119 -0.0531,-0.0999 -0.14335,-0.3836 -0.20064,-0.63042 -0.0573,-0.24682 -0.13017,-0.50551 -0.16195,-0.57486 -0.0318,-0.0693 -0.0651,-0.40449 -0.074,-0.74477 l -0.0162,-0.61869 -0.24968,0.335 c -0.55711,0.74749 -0.74138,0.94089 -0.87792,0.92137 -0.0806,-0.0115 -0.12994,-0.0617 -0.12489,-0.1269 0.007,-0.0922 -0.0203,-0.0865 -0.18913,0.0393 -0.22737,0.16939 -0.35508,0.15087 -0.35508,-0.0515 0,-0.14313 0.80023,-1.40938 1.2189,-1.92873 l 0.2287,-0.28369 -0.58196,-0.0402 c -0.32007,-0.0221 -0.8685,-0.0434 -1.21872,-0.0473 -0.35023,-0.004 -0.72611,-0.0382 -0.83531,-0.0763 -0.6389,-0.22272 0.31091,-0.40882 2.2601,-0.44281 0.6379,-0.0111 0.64706,-0.0132 0.25217,-0.0576 -0.22537,-0.0253 -0.65091,-0.0522 -0.94563,-0.0597 -0.59234,-0.0151 -0.82939,-0.0622 -0.86598,-0.17192 -0.0525,-0.15737 0.25791,-0.21897 1.09786,-0.2179 l 0.84897,0.001 -0.0978,-0.13714 c -0.26454,-0.3711 -1.10916,-1.81983 -1.10916,-1.9025 0,-0.20927 0.20556,-0.0667 0.67377,0.4674 0.27088,0.30897 0.51378,0.56429 0.53979,0.56737 0.026,0.003 0.0477,-0.18588 0.0481,-0.41992 10e-4,-0.59848 0.17125,-2.60922 0.25795,-3.04988 0.0398,-0.20233 0.10996,-0.41803 0.1559,-0.47933 0.0785,-0.10476 0.0924,-0.10199 0.23176,0.0461 0.0815,0.0867 0.19425,0.28527 0.25051,0.44129 0.0563,0.15603 0.16213,0.4487 0.23526,0.65037 0.19438,0.53608 0.31695,1.47178 0.31737,2.42293 2e-4,0.45941 0.0192,0.8353 0.0421,0.8353 0.023,0 0.18545,-0.0922 0.36105,-0.20488 0.17561,-0.11269 0.34122,-0.20489 0.36801,-0.20489 0.0268,0 0.046,-0.0239 0.0426,-0.0532 -0.003,-0.0292 0.0621,-0.12854 0.14544,-0.22065 0.0834,-0.0921 0.22839,-0.28804 0.32225,-0.4354 0.18223,-0.28609 0.2919,-0.32898 0.4265,-0.16679 0.0717,0.0864 0.048,0.17087 -0.1621,0.5791 -0.13533,0.26288 -0.32859,0.57198 -0.42948,0.68688 -0.25172,0.28669 -0.1666,0.2619 0.27956,-0.0814 0.20752,-0.15969 0.3941,-0.27356 0.41461,-0.25305 0.0205,0.0205 -0.0451,0.0992 -0.1457,0.17481 -0.2736,0.20562 -1.03406,0.98167 -1.03406,1.05525 0,0.0353 0.10638,0.0806 0.23641,0.1007 0.7366,0.11398 0.75601,0.14264 0.11032,0.16283 -0.50307,0.0157 -0.54764,0.0237 -0.22065,0.0393 0.71949,0.0343 1.69,0.14041 2.0003,0.21864 l 0.30073,0.0758 -0.31521,0.0873 c -0.17336,0.048 -0.74664,0.10334 -1.27394,0.1229 l -0.95874,0.0356 0.45929,0.54326 c 0.52563,0.62172 0.76518,0.95303 0.68909,0.95303 -0.029,0 -0.16101,-0.0736 -0.29338,-0.16355 l -0.24068,-0.16354 0.0786,0.14778 c 0.14212,0.26735 0.39784,0.6486 0.5763,0.8592 0.19109,0.22552 0.2267,0.42171 0.0863,0.47558 -0.0809,0.0311 -0.40609,-0.29751 -1.66597,-1.68355 -0.1505,-0.16558 -0.28651,-0.28818 -0.30224,-0.27245 -0.0157,0.0157 -0.0509,0.36075 -0.0781,0.76672 -0.0325,0.48401 -0.0772,0.75523 -0.13,0.78784 -0.0613,0.0379 -0.0826,0.41802 -0.0895,1.59691 -0.005,0.85096 -0.0303,1.56846 -0.0563,1.59445 -0.026,0.026 -0.0493,0.0354 -0.0518,0.021 z m -0.28563,-4.0711 c -0.0366,-0.57159 -0.0589,-0.69468 -0.0952,-0.5257 -0.0261,0.12135 -0.0219,0.41923 0.009,0.66194 0.0313,0.24271 0.0577,0.49567 0.0588,0.56212 0.001,0.0665 0.0183,0.10444 0.0384,0.0844 0.02,-0.02 0.0149,-0.37228 -0.0113,-0.78277 z m 0.48289,-0.63011 c -0.0417,-0.35888 -0.0501,-0.2724 -0.0498,0.51418 2.7e-4,0.8559 0.005,0.89684 0.0501,0.43145 0.0274,-0.2828 0.0273,-0.70833 -3.1e-4,-0.94563 z m -0.74617,-4.58195 -0.0641,-0.19939 -0.008,0.28369 c -0.004,0.15603 -0.0479,0.62388 -0.097,1.03967 -0.0822,0.69649 -0.0809,0.76527 0.0171,0.87399 0.10044,0.11151 0.10932,0.0652 0.16112,-0.84028 0.036,-0.62857 0.0327,-1.0269 -0.009,-1.15768 z"
       id="path2"
       sodipodi:nodetypes="sssssssssssssscsssscssscccssscssssssssssssssscsssssssscssssccsscscsscssscsccscssccssscssscssssssccsssssssscssscsccsssccscsscssscccscccccscssscccccccc" /></g></svg>
